<?xml version="1.0" encoding="UTF-8" standalone="no"?>
<!-- Created with Inkscape (http://www.inkscape.org/) -->

<svg
   xmlns:dc="http://purl.org/dc/elements/1.1/"
   xmlns:cc="http://creativecommons.org/ns#"
   xmlns:rdf="http://www.w3.org/1999/02/22-rdf-syntax-ns#"
   xmlns:svg="http://www.w3.org/2000/svg"
   xmlns="http://www.w3.org/2000/svg"
   xmlns:sodipodi="http://sodipodi.sourceforge.net/DTD/sodipodi-0.dtd"
   xmlns:inkscape="http://www.inkscape.org/namespaces/inkscape"
   version="1.1"
   id="svg10"
   width="300"
   height="280"
   viewBox="0 0 299.99999 280"
   sodipodi:docname="default.svg"
   inkscape:version="0.92.2 (unknown)">
  <metadata
     id="metadata16">
    <rdf:RDF>
      <cc:Work
         rdf:about="">
        <dc:format>image/svg+xml</dc:format>
        <dc:type
           rdf:resource="http://purl.org/dc/dcmitype/StillImage" />
        <dc:title></dc:title>
      </cc:Work>
    </rdf:RDF>
  </metadata>
  <defs
     id="defs14" />
  <sodipodi:namedview
     pagecolor="#ffffff"
     bordercolor="#666666"
     borderopacity="1"
     objecttolerance="10"
     gridtolerance="10"
     guidetolerance="10"
     inkscape:pageopacity="0"
     inkscape:pageshadow="2"
     inkscape:window-width="1920"
     inkscape:window-height="960"
     id="namedview12"
     showgrid="false"
     fit-margin-top="0"
     fit-margin-left="0"
     fit-margin-right="0"
     fit-margin-bottom="0"
     inkscape:zoom="0.96625"
     inkscape:cx="269.13853"
     inkscape:cy="101.49862"
     inkscape:window-x="0"
     inkscape:window-y="27"
     inkscape:window-maximized="1"
     inkscape:current-layer="svg10" />
  <path
     style="fill:#999999;stroke-width:0.21482246"
     d="M 32.142885,253.07973 V 226.15968 H 16.071442 0 v -43.07209 -43.07211 h 16.057439 16.057449 l 0.0885,-13.94454 c 0.09588,-15.11511 0.09748,-15.13763 1.443779,-20.57474 1.328842,-5.36669 4.284024,-12.077153 7.339721,-16.666659 7.165252,-10.76191 17.757374,-18.618121 29.857919,-22.145623 2.5146,-0.73306 6.545487,-1.535563 9.128979,-1.817565 1.352901,-0.147636 12.091504,-0.22704 30.696444,-0.22704 h 28.61562 V 52.404655 40.170005 l -1.33933,-0.891954 c -4.20946,-2.803492 -7.41121,-7.302743 -8.772,-12.326824 -0.43426,-1.603192 -0.49383,-2.298767 -0.47942,-5.599442 0.0149,-3.455645 0.0644,-3.927599 0.59641,-5.68115 1.13134,-3.730313 2.82257,-6.5871747 5.52884,-9.3401131 8.29052,-8.4331867 22.06089,-8.4418297 30.34051,-0.019092 3.35603,3.4140347 5.32117,7.2606321 6.05828,11.8590791 0.3754,2.341391 0.16679,6.682752 -0.4271,8.888459 -1.32043,4.904679 -4.56249,9.438097 -8.73831,12.219184 l -1.33932,0.892053 V 52.397622 64.62515 l 29.94644,0.07432 c 29.68495,0.07335 29.96751,0.07843 32.35513,0.541206 12.20672,2.366712 21.92887,7.576612 30.00704,16.080046 6.30652,6.638532 11.05426,15.191009 13.23706,23.845618 1.44605,5.7329 1.44002,5.65197 1.53687,20.9048 l 0.0882,13.94454 H 283.94256 300 v 43.07211 43.07209 H 283.92882 267.85745 V 253.07993 280 H 150.00012 32.142885 Z m 42.857172,-21.53604 v -26.92006 h 75.000063 75.00007 v 26.92006 26.92006 h 10.71429 10.71428 l -0.003,-69.93836 c -0.002,-43.39605 -0.0822,-70.89738 -0.21177,-72.4656 -0.38262,-4.64047 -1.26747,-7.90404 -3.22712,-11.90183 -3.76095,-7.67241 -10.23454,-13.403713 -18.20055,-16.113639 -2.83449,-0.964215 -4.90654,-1.387422 -8.09248,-1.652747 -3.40456,-0.283515 -129.982023,-0.283515 -133.386666,0 -3.173057,0.264223 -5.246448,0.68612 -8.092433,1.646717 -10.565312,3.565899 -18.596487,12.732509 -20.876939,23.828269 -0.188312,0.91624 -0.436156,2.80309 -0.550784,4.19323 -0.1293,1.56822 -0.209652,29.06955 -0.211756,72.4656 l -0.003,69.93836 h 10.714254 10.714295 z m 27.992763,-59.54587 c -4.431062,-0.92285 -8.170062,-3.01855 -11.39951,-6.3894 -2.971556,-3.10179 -4.772874,-6.61567 -5.570985,-10.86758 -0.528729,-2.81693 -0.335551,-7.26587 0.427875,-9.8539 1.08612,-3.68187 2.792424,-6.5727 5.512967,-9.34004 8.290573,-8.43321 22.060943,-8.44192 30.340583,-0.019 3.35602,3.41402 5.32106,7.26065 6.05827,11.85905 0.36898,2.30195 0.16699,6.67768 -0.40886,8.85703 -0.50385,1.90679 -1.98895,5.1951 -3.03931,6.72936 -1.0433,1.52385 -3.49369,4.03686 -5.11218,5.24267 -1.8261,1.36069 -4.99765,2.89586 -7.19439,3.48243 -2.22939,0.59541 -7.41773,0.75697 -9.61446,0.29961 z m 85.71435,0 c -4.431,-0.92285 -8.17005,-3.01855 -11.39952,-6.3894 -2.97157,-3.10179 -4.77288,-6.61567 -5.57091,-10.86758 -0.52876,-2.81693 -0.33564,-7.26587 0.42783,-9.8539 1.08611,-3.68187 2.79242,-6.5727 5.513,-9.34004 8.29052,-8.43321 22.06089,-8.44192 30.34052,-0.019 3.35603,3.41402 5.32106,7.26065 6.05827,11.85905 0.369,2.30195 0.167,6.67768 -0.40885,8.85703 -0.50385,1.90679 -1.98896,5.1951 -3.0393,6.72936 -1.04329,1.52385 -3.4937,4.03686 -5.11208,5.24267 -1.8262,1.36069 -4.99777,2.89586 -7.19449,3.48243 -2.22943,0.59541 -7.41774,0.75697 -9.61447,0.29961 z m -70.84988,70.3139 V 226.15968 H 107.1429 96.428657 v 16.15204 16.15203 h 10.714243 10.71439 z m 42.85711,0 v -16.15204 h -10.71428 -10.71427 v 16.15204 16.15203 h 10.71427 10.71428 z m 42.85723,0 v -16.15204 h -10.71427 -10.7144 v 16.15204 16.15203 h 10.7144 10.71427 z M 32.142885,183.08759 V 161.55153 H 26.785738 21.42859 v 21.53606 21.53604 h 5.357148 5.357147 z m 246.428825,0 v -21.53606 h -5.3572 -5.35709 v 21.53606 21.53604 h 5.35709 5.3572 z"
     id="path20"
     inkscape:connector-curvature="0" />
</svg>
